<svg height="511pt" viewBox="-21 0 511 511.997" width="511pt" xmlns="http://www.w3.org/2000/svg"><path d="m161.667969 177.242188c0 30.582031-24.792969 55.375-55.375 55.375s-55.375-24.792969-55.375-55.375c0-30.585938 24.792969-55.378907 55.375-55.378907s55.375 24.792969 55.375 55.378907zm0 0" fill="#de815a"/><path d="m50.917969 177.242188c0 30.582031 24.792969 55.375 55.378906 55.375 10.566406 0 20.445313-2.964844 28.855469-8.097657-3.886719.867188-7.914063 1.320313-12.054688 1.320313-30.585937 0-55.378906-24.792969-55.378906-55.378906 0-20.011719 10.613281-37.539063 26.519531-47.277344-24.785156 5.496094-43.320312 27.617187-43.320312 54.058594zm0 0" fill="#d86b3e"/><path d="m137.359375 180.320312c0 15.453126-12.53125 27.984376-27.988281 27.984376-15.457032 0-27.984375-12.53125-27.984375-27.984376 0-15.457031 12.527343-27.988281 27.984375-27.988281 15.457031 0 27.988281 12.53125 27.988281 27.988281zm0 0" fill="#fceded"/><path d="m81.386719 180.324219c0 15.453125 12.523437 27.980469 27.980469 27.980469 8.699218 0 16.472656-3.96875 21.605468-10.191407-1.503906.25-3.054687.382813-4.636718.382813-15.457032 0-27.988282-12.535156-27.988282-27.988282 0-6.753906 2.398438-12.949218 6.378906-17.792968-13.25 2.210937-23.339843 13.726562-23.339843 27.609375zm0 0" fill="#ead3e0"/><path d="m68.664062 284.675781c0-70.285156 56.976563-127.265625 127.265626-127.265625 70.285156 0 127.261718 56.980469 127.261718 127.265625v145.425781h-254.527344zm0 0" fill="#e49776"/><path d="m323.191406 284.675781v145.425781h-21.171875v-145.425781c0-66.722656-51.347656-121.449219-116.679687-126.828125 3.488281-.292968 7.023437-.4375 10.589844-.4375 70.285156 0 127.261718 56.980469 127.261718 127.265625zm0 0" fill="#de815a"/><g fill="#fceded"><path d="m130.515625 273.65625c0 6.0625-4.914063 10.980469-10.976563 10.980469s-10.976562-4.917969-10.976562-10.980469 4.914062-10.976562 10.976562-10.976562 10.976563 4.914062 10.976563 10.976562zm0 0"/><path d="m283.292969 273.65625c0 6.0625-4.914063 10.980469-10.976563 10.980469s-10.976562-4.917969-10.976562-10.980469 4.914062-10.976562 10.976562-10.976562 10.976563 4.914062 10.976563 10.976562zm0 0"/><path d="m201.046875 275.949219c-4.027344-1.339844-8.417969-1.402344-12.480469-.183594-17.726562 5.320313-33.117187 18.726563-40.878906 34.621094-3.71875 7.617187-5.828125 16.089843-4.972656 24.484375.90625 8.921875 5.328125 17.175781 11.964844 23.625 22.152343 21.546875 60.464843 19.703125 81.132812-2.46875 23.976562-25.71875-.222656-68.59375-34.765625-80.078125zm0 0"/></g><path d="m235.816406 356.023438c-13.507812 14.480468-34.539062 20.296874-53.683594 16.570312 11.585938-2.230469 22.507813-7.8125 30.667969-16.570312 22.847657-24.496094 1.957031-64.558594-29.929687-78.238282 1.863281-.765625 3.765625-1.441406 5.695312-2.023437 4.066406-1.214844 8.449219-1.152344 12.476563.1875 34.546875 11.484375 58.746093 54.359375 34.773437 80.074219zm0 0" fill="#ead3e0"/><path d="m214.578125 268.875c-9.273437-2.15625-20.304687-1.671875-20.304687-1.671875s-11.035157-.484375-20.308594 1.671875c-7.921875 1.839844-11.863282 10.746094-8.128906 17.972656 4.625 8.945313 13.523437 20.789063 28.4375 21.582032 14.910156-.792969 23.808593-12.636719 28.433593-21.582032 3.734375-7.226562-.207031-16.132812-8.128906-17.972656zm0 0" fill="#51489a"/><path d="m222.707031 286.84375c-4.625 8.949219-13.527343 20.792969-28.433593 21.585938-2.910157-.15625-5.585938-.726563-8.050782-1.621094 10.175782-3.683594 16.667969-12.765625 20.398438-19.964844 3.730468-7.214844-.214844-16.125-8.136719-17.972656-4.105469-.957032-8.5625-1.390625-12.25-1.582032 4.625-.234374 8.039063-.089843 8.039063-.089843s11.03125-.480469 20.308593 1.671875c7.914063 1.847656 11.867188 10.757812 8.125 17.972656zm0 0" fill="#3342ae"/><path d="m365.683594 82.269531-57.953125 109.890625c-7.6875 14.578125-25.734375 20.164063-40.3125 12.476563l-41.859375-22.078125c-14.574219-7.6875-20.160156-25.734375-12.472656-40.3125l57.953124-109.890625c7.6875-14.578125 25.738282-20.164063 40.3125-12.472657l41.859376 22.074219c14.574218 7.6875 20.160156 25.734375 12.472656 40.3125zm0 0" fill="#9773bd"/><path d="m365.683594 82.265625-12.058594 21.621094c7.6875-14.582031 2.105469-32.625-12.46875-40.3125l-41.859375-22.074219c-12.800781-6.746094-28.277344-3.265625-37.054687 7.550781l8.800781-16.691406c7.6875-14.582031 25.730469-20.167969 40.3125-12.476563l41.859375 22.070313c14.574218 7.6875 20.15625 25.738281 12.46875 40.3125zm0 0" fill="#5f55af"/><path d="m224.054688 121.464844 36.023437-68.300782 94.640625 49.914063-36.023438 68.300781zm0 0" fill="#fceded"/><path d="m248.753906 74.632812 11.324219-21.472656 94.644531 49.917969-11.324218 21.472656zm0 0" fill="#ead3e0"/><path d="m460.054688 189.429688-11.523438 21.847656c-3.503906 6.644531-11.726562 9.1875-18.367188 5.683594l-105.5625-56.796876 24.210938-45.902343 105.558594 56.796875c6.640625 3.503906 9.1875 11.726562 5.683594 18.371094zm0 0" fill="#5f55af"/><path d="m460.054688 189.429688-6.375 12.078124c1.546874-5.964843-1.140626-12.410156-6.824219-15.414062l-105.558594-56.796875 7.519531-15.035156 105.558594 56.796875c6.632812 3.507812 9.179688 11.726562 5.679688 18.371094zm0 0" fill="#3342ae"/><path d="m403.75 343.863281c-.558594.53125-1.121094 1.054688-1.703125 1.566407.390625-.632813.960937-1.171876 1.703125-1.566407zm0 0" fill="#ffb357"/><path d="m168.652344 9.882812c-6.046875 10.328126-18.476563 28.40625-35.601563 37.269532-3.378906 1.75-3.382812 6.660156 0 8.410156 17.125 8.859375 29.550781 26.941406 35.59375 37.269531 1.855469 3.164063 6.40625 3.164063 8.261719 0 6.046875-10.328125 18.476562-28.410156 35.597656-37.269531 3.382813-1.75 3.382813-6.660156 0-8.410156-17.121094-8.859375-29.546875-26.941406-35.589844-37.269532-1.855468-3.167968-6.410156-3.167968-8.261718 0zm0 0" fill="#ffdb45"/><path d="m212.5 55.5625c-2.875 1.484375-5.613281 3.230469-8.207031 5.152344-.441407-.742188-1.101563-1.382813-1.976563-1.824219-18.421875-9.542969-31.792968-28.996094-38.296875-40.105469-.160156-.269531-.339843-.519531-.542969-.75 2.058594-2.996094 3.78125-5.785156 5.175782-8.160156 1.851562-3.15625 6.402344-3.15625 8.257812 0 6.042969 10.335938 18.472656 28.417969 35.589844 37.277344 3.390625 1.746094 3.390625 6.65625 0 8.410156zm0 0" fill="#ffb357"/><path d="m380.902344 237.289062c-4.332032 7.402344-13.242188 20.363282-25.511719 26.710938-2.425781 1.253906-2.425781 4.773438 0 6.027344 12.269531 6.351562 21.175781 19.308594 25.507813 26.710937 1.328124 2.269531 4.589843 2.269531 5.917968 0 4.335938-7.402343 13.242188-20.359375 25.515625-26.710937 2.421875-1.253906 2.421875-4.773438 0-6.027344-12.273437-6.347656-21.175781-19.308594-25.507812-26.710938-1.328125-2.265624-4.59375-2.265624-5.921875 0zm0 0" fill="#ffdb45"/><path d="m412.332031 270.03125c-2.476562 1.28125-4.820312 2.824219-7.007812 4.550781-.179688-.160156-.371094-.28125-.582031-.390625-13.621094-7.046875-23.503907-21.421875-28.304688-29.640625-.03125-.0625-.070312-.109375-.109375-.171875 1.851563-2.613281 3.386719-5.0625 4.570313-7.085937 1.332031-2.273438 4.601562-2.273438 5.921874 0 4.332032 7.398437 13.242188 20.359375 25.511719 26.703125 2.425781 1.261718 2.425781 4.78125 0 6.035156zm0 0" fill="#ffb357"/><path d="m37.398438 59.121094c-4.332032 7.402344-13.242188 20.359375-25.511719 26.707031-2.425781 1.257813-2.425781 4.773437 0 6.027344 12.269531 6.351562 21.175781 19.308593 25.507812 26.710937 1.328125 2.269532 4.589844 2.269532 5.917969 0 4.335938-7.402344 13.242188-20.359375 25.515625-26.710937 2.421875-1.253907 2.421875-4.769531 0-6.027344-12.273437-6.347656-21.175781-19.304687-25.507813-26.707031-1.328124-2.269532-4.59375-2.269532-5.921874 0zm0 0" fill="#ffdb45"/><path d="m68.828125 91.859375c-2.476563 1.285156-4.820313 2.828125-7.007813 4.550781-.179687-.160156-.371093-.28125-.578124-.390625-13.625-7.046875-23.507813-21.421875-28.308594-29.640625-.03125-.058594-.070313-.109375-.109375-.167968 1.851562-2.617188 3.386719-5.0625 4.570312-7.089844 1.332031-2.273438 4.601563-2.273438 5.925781 0 4.328126 7.398437 13.238282 20.359375 25.507813 26.703125 2.425781 1.265625 2.425781 4.78125 0 6.035156zm0 0" fill="#ffb357"/><path d="m377.996094 504.492188h-364.132813c-3.234375 0-5.859375-2.621094-5.859375-5.855469v-25.386719c0-3.234375 2.625-5.855469 5.859375-5.855469h364.132813c3.234375 0 5.855468 2.621094 5.855468 5.855469v25.386719c0 3.234375-2.621093 5.855469-5.855468 5.855469zm0 0" fill="#2dcfea"/><path d="m383.847656 473.25v25.390625c0 3.226563-2.613281 5.855469-5.851562 5.855469h-20.5625c3.238281 0 5.855468-2.628906 5.855468-5.855469v-25.390625c0-3.238281-2.617187-5.851562-5.855468-5.851562h20.5625c3.238281 0 5.851562 2.617187 5.851562 5.851562zm0 0" fill="#14b6ef"/><path d="m348.472656 467.394531h-305.089844v-31.242187c0-3.234375 2.621094-5.855469 5.855469-5.855469h293.378907c3.234374 0 5.855468 2.621094 5.855468 5.855469zm0 0" fill="#b4e7fd"/><path d="m348.472656 436.152344v31.246094h-22.28125v-31.246094c0-3.238282-2.617187-5.863282-5.855468-5.863282h22.285156c3.226562 0 5.851562 2.625 5.851562 5.863282zm0 0" fill="#72d1fb"/><path d="m159.75 254.296875v-11.460937c0-4.144532-3.363281-7.507813-7.507812-7.507813-4.144532 0-7.507813 3.363281-7.507813 7.507813v11.460937c0 4.144531 3.363281 7.507813 7.507813 7.507813 4.144531 0 7.507812-3.363282 7.507812-7.507813zm0 0"/><path d="m239.613281 261.804688c4.144531 0 7.507813-3.363282 7.507813-7.507813v-11.460937c0-4.144532-3.363282-7.507813-7.507813-7.507813s-7.507812 3.363281-7.507812 7.507813v11.460937c0 4.144531 3.363281 7.507813 7.507812 7.507813zm0 0"/><path d="m129.601562 62.230469c15.523438 8.03125 27.066407 24.996093 32.566407 34.394531 2.230469 3.8125 6.199219 6.089844 10.609375 6.089844s8.375-2.277344 10.609375-6.089844c5.5-9.398438 17.046875-26.363281 32.570312-34.394531 4.066407-2.109375 6.59375-6.273438 6.59375-10.875 0-4.601563-2.527343-8.765625-6.59375-10.871094-15.519531-8.03125-27.066406-24.996094-32.566406-34.394531-2.230469-3.8125-6.195313-6.089844-10.605469-6.089844-4.414062 0-8.378906 2.277344-10.609375 6.089844-1.367187 2.328125-2.820312 4.644531-4.324219 6.878906-2.3125 3.4375-1.402343 8.101562 2.039063 10.417969 3.4375 2.3125 8.101563 1.402343 10.417969-2.035157.84375-1.25 1.667968-2.523437 2.476562-3.804687 6.382813 10.148437 17.328125 24.730469 31.945313 33.808594-14.621094 9.082031-25.566407 23.664062-31.953125 33.816406-6.382813-10.152344-17.324219-24.734375-31.945313-33.8125 1.132813-.703125 2.257813-1.445313 3.371094-2.226563 3.394531-2.382812 4.214844-7.066406 1.832031-10.457031-2.382812-3.394531-7.066406-4.214843-10.457031-1.832031-1.976563 1.386719-3.988281 2.613281-5.976563 3.640625-4.066406 2.105469-6.59375 6.273437-6.59375 10.875 0 4.597656 2.527344 8.761719 6.59375 10.871094zm0 0"/><path d="m135.246094 335.632812c1.050781 10.332032 6.09375 20.363282 14.203125 28.246094 11.523437 11.210938 27.125 17.324219 44.09375 17.324219.574219 0 1.15625-.007813 1.738281-.019531 17.785156-.4375 34.5625-7.738282 46.023438-20.035156 10.539062-11.308594 14.097656-26.347657 10.011718-42.359376-3.136718-12.300781-10.433594-23.933593-20.210937-33.171874 1.023437-4.328126.589843-8.890626-1.328125-13.042969-2.589844-5.605469-7.511719-9.621094-13.496094-11.011719-9.339844-2.167969-19.96875-1.9375-22.007812-1.867188-2.035157-.070312-12.664063-.304687-22.003907 1.867188-5.988281 1.390625-10.910156 5.40625-13.496093 11.011719-1.882813 4.074219-2.335938 8.542969-1.386719 12.796875-6.8125 6.246094-12.503907 13.652344-16.441407 21.722656-4.660156 9.539062-6.628906 19.40625-5.699218 28.539062zm37.15625-56.765624c.371094-.804688 1.289062-2.222657 3.265625-2.679688 5.675781-1.320312 12.300781-1.519531 15.804687-1.519531 1.507813 0 2.441406.035156 2.46875.039062.21875.007813.441406.007813.660156 0 2.78125-.121093 11.492188-.097656 18.277344 1.480469 1.976563.457031 2.894532 1.878906 3.265625 2.679688.671875 1.453124.632813 3.105468-.105469 4.53125-3.917968 7.578124-10.863281 16.71875-21.765624 17.511718-10.90625-.792968-17.851563-9.929687-21.769532-17.511718-.738281-1.425782-.773437-3.078126-.101562-4.53125zm-17.96875 34.816406c2.578125-5.277344 6.109375-10.183594 10.285156-14.53125 7.765625 10.289062 17.855469 16.171875 29.152344 16.773437.132812.007813.265625.011719.402344.011719.132812 0 .265624-.003906.398437-.011719 11.199219-.59375 21.210937-6.386719 28.949219-16.511719 6.324218 6.785157 11.035156 14.816407 13.144531 23.085938 1.964844 7.699219 2.441406 18.878906-6.441406 28.410156-8.730469 9.363282-21.636719 14.925782-35.414063 15.261719-13.375.351563-26.128906-4.429687-34.996094-13.054687-5.582031-5.425782-9.035156-12.175782-9.730468-19.003907-.644532-6.347656.824218-13.414062 4.25-20.429687zm0 0"/><path d="m415.78125 257.332031c-10.648438-5.507812-18.65625-17.296875-22.480469-23.832031-1.984375-3.394531-5.511719-5.417969-9.4375-5.417969s-7.453125 2.023438-9.4375 5.414063c-3.828125 6.539062-11.839843 18.328125-22.484375 23.835937-3.625 1.875-5.875 5.585938-5.875 9.683594 0 4.09375 2.25 7.804687 5.875 9.679687 10.644532 5.507813 18.652344 17.296876 22.476563 23.832032 1.984375 3.394531 5.515625 5.417968 9.441406 5.417968 3.921875 0 7.449219-2.023437 9.4375-5.414062 3.824219-6.539062 11.835937-18.328125 22.484375-23.835938 3.625-1.878906 5.875-5.585937 5.875-9.683593 0-4.097657-2.253906-7.804688-5.875-9.679688zm-28.398438-16.25c-.003906.003907-.003906.007813-.003906.007813s0-.003906.003906-.007813zm-3.523437 46.269531c-4.363281-6.472656-10.816406-14.476562-19.0625-20.335937 8.246094-5.863281 14.703125-13.863281 19.066406-20.339844 4.363281 6.476563 10.816407 14.476563 19.058594 20.339844-8.246094 5.859375-14.699219 13.863281-19.0625 20.335937zm0 0"/><path d="m8.4375 98.523438c10.644531 5.507812 18.652344 17.296874 22.476562 23.835937 1.988282 3.390625 5.515626 5.414063 9.441407 5.414063s7.453125-2.023438 9.4375-5.414063c3.828125-6.535156 11.835937-18.328125 22.484375-23.835937 3.625-1.875 5.875-5.582032 5.875-9.679688s-2.25-7.804688-5.875-9.679688c-10.648438-5.511718-18.652344-17.300781-22.480469-23.835937-1.984375-3.390625-5.511719-5.414063-9.4375-5.417969-3.925781 0-7.453125 2.027344-9.4375 5.417969-3.828125 6.535156-11.835937 18.324219-22.484375 23.835937-3.625 1.875-5.875 5.582032-5.875 9.679688-.003906 4.09375 2.25 7.804688 5.875 9.679688zm35.441406-35.609376c-.003906 0-.003906 0-.003906.003907 0-.003907 0-.003907.003906-.003907zm-3.519531 5.59375c4.363281 6.472657 10.8125 14.476563 19.058594 20.335938-8.246094 5.859375-14.699219 13.863281-19.0625 20.335938-4.363281-6.472657-10.816407-14.476563-19.0625-20.335938 8.246093-5.859375 14.703125-13.863281 19.066406-20.335938zm0 0"/><path d="m458.390625 164.449219-99.003906-53.269531 2.433593-4.613282c.003907-.003906.003907-.003906.003907-.003906l10.964843-20.792969c4.652344-8.824219 5.589844-18.929687 2.640626-28.460937-2.945313-9.53125-9.429688-17.339844-18.253907-21.992188l-41.859375-22.078125c-18.214844-9.601562-40.847656-2.601562-50.453125 15.613281l-10.964843 20.792969s0 0-.003907 0l-5.359375 10.167969-41.628906 78.933594c-1.898438 3.601562-3.167969 7.417968-3.820312 11.324218-2.21875-.109374-4.449219-.167968-6.695313-.167968-10.949219 0-21.597656 1.324218-31.796875 3.796875-9.335938-23.042969-31.945312-39.34375-58.300781-39.34375-34.671875 0-62.882813 28.207031-62.882813 62.882812 0 22.445313 11.828125 42.171875 29.574219 53.300781-7.300781 16.578126-11.363281 34.890626-11.363281 54.132813v138.113281h-11.917969c-7.367187 0-13.363281 5.996094-13.363281 13.363282v23.738281h-22.476563c-7.371093 0-13.363281 5.992187-13.363281 13.359375v25.386718c0 7.371094 5.992188 13.363282 13.363281 13.363282h364.132813c7.367187 0 13.363281-5.992188 13.363281-13.363282v-25.382812c0-7.367188-5.996094-13.363281-13.363281-13.363281h-21.550782v-23.734375c0-7.371094-5.996093-13.363282-13.363281-13.363282h-11.917969v-48.660156c0-4.148437-3.363281-7.507812-7.507812-7.507812s-7.507812 3.359375-7.507812 7.507812v48.46875h-239.515626v-137.921875c0-66.035156 53.722657-119.757812 119.757813-119.757812 2.453125 0 4.886719.085937 7.304687.234375.171876.6875.355469 1.375.566407 2.058594 2.949219 9.527343 9.433593 17.339843 18.257812 21.992187l41.859375 22.074219c5.449219 2.875 11.386719 4.332031 17.375 4.332031 3.710938 0 7.441406-.558594 11.085938-1.6875.027344-.011719.058594-.019531.085937-.03125 14.589844 19.84375 23.222657 44.324219 23.222657 70.785156v54.621094c0 4.144531 3.359374 7.507813 7.507812 7.507813 4.144531 0 7.507812-3.363282 7.507812-7.507813v-54.621094c0-29.089843-9.269531-56.058593-25.007812-78.109375 3.507812-3.015625 6.457031-6.6875 8.675781-10.902344l10.964844-20.789062s0 0 0-.003906l2.378906-4.503906 98.945313 53.238281c3.132812 1.652343 6.496094 2.433593 9.808594 2.433593 7.585937 0 14.929687-4.09375 18.703124-11.257812l11.523438-21.847656c5.429688-10.296875 1.472656-23.085938-8.765625-28.484375zm-82.046875 310.453125v22.082031h-360.832031v-22.082031zm-34.914062-37.101563v22.085938h-290.078126v-22.085938zm-245.886719-242.425781c-4.078125-3.738281-6.652344-9.097656-6.652344-15.054688 0-11.292968 9.1875-20.480468 20.480469-20.480468 7.269531 0 13.652344 3.816406 17.28125 9.546875-11.636719 7.066406-22.121094 15.851562-31.109375 25.988281zm44.394531-33.0625c-6.179688-10.453125-17.566406-17.488281-30.566406-17.488281-19.570313 0-35.492188 15.921875-35.492188 35.496093 0 10.71875 4.78125 20.335938 12.320313 26.847657-2.261719 3.207031-4.386719 6.515625-6.371094 9.921875-12.886719-8.585938-21.402344-23.234375-21.402344-39.847656 0-26.394532 21.472657-47.871094 47.867188-47.871094 19.585937 0 36.445312 11.824218 43.847656 28.707031-3.46875 1.273437-6.871094 2.691406-10.203125 4.234375zm138.203125-126.457031c3.996094-7.578125 11.765625-11.910157 19.792969-11.910157 3.507812 0 7.066406.828126 10.378906 2.574219l41.859375 22.078125c5.273437 2.78125 9.152344 7.453125 10.914063 13.148438 1.765624 5.699218 1.203124 11.746094-1.578126 17.019531l-7.464843 14.15625-81.367188-42.910156zm23.414063 152.804687c-2.785157 5.277344-7.457032 9.152344-13.152344 10.917969-5.699219 1.761719-11.742188 1.203125-17.019532-1.582031l-41.859374-22.074219c-5.273438-2.785156-9.152344-7.453125-10.914063-13.152344-1.765625-5.699219-1.203125-11.742187 1.578125-17.019531l7.464844-14.152344 81.363281 42.910156zm14.464843-27.433594-81.363281-42.910156 12.535156-23.769531 16.480469-31.257813 81.367187 42.910157zm137.859375 24.699219-11.523437 21.851563c-1.566407 2.96875-5.257813 4.109375-8.171875 2.574218l-99.003906-53.265624 17.203124-32.625 98.949219 53.238281c2.96875 1.566406 4.113281 5.257812 2.546875 8.226562zm0 0"/></svg>